# xmcd
#
# Track frame offsets:
#      150
#      13134
#      29562
#      46898
#      61922
#      73754
#      88919
#      103269
#      114802
#      128076
# 
# Disc length: 1851 seconds
#
# Revision: 2
# Processed by: cddbd v1.4PL0 Copyright (c) Steve Scherf et al.
#
# Submitted via: FreeRIP 1.21
#
DISCID=8707390a
DTITLE=Merle Haggard - It's All In The Game
DYEAR=1984
DGENRE=country
TTITLE0=Merle Haggard-Let's Chase Each Other Around The Room-'84-It's All In The Game
TTITLE1=Merle Haggard-A Place To Fal Apart-'84-It's All In The Game
TTITLE2=Merle Haggard-It's All In The Game-'84-It's All In The Game
TTITLE3=Merle Haggard-Little Hotel Room='84-It's All In The Game
TTITLE4=Merle Haggard-I Never Go Home Anymore-'84-It's All In The Game
TTITLE5=Merle Haggard-All I Want To Do Is Sing My Song-'84-It's All In The Game
TTITLE6=Merle Haggard-Natural High (with Janie Fricke)-'84-It's All In The Game
TTITLE7=Merle Haggard-Thank Heaven For Little Girls-'84-It's All In The Game
TTITLE8=Merle Haggard-To All The Girls I've Loved Before-'84-It's All In The Game
TTITLE9=Merle Haggard-You Nearly Lose Your Mind-'84-It's All In The Game
EXTD=
EXTT0=
EXTT1=
EXTT2=
EXTT3=
EXTT4=
EXTT5=
EXTT6=
EXTT7=
EXTT8=
EXTT9=
PLAYORDER=
